<svg xmlns="http://www.w3.org/2000/svg"  viewBox="0 0 50 50" width="500px" height="500px"><path d="M 14 4 C 8.486 4 4 8.486 4 14 L 4 36 C 4 41.514 8.486 46 14 46 L 36 46 C 41.514 46 46 41.514 46 36 L 46 14 C 46 8.486 41.514 4 36 4 L 14 4 z M 27.855469 9.4375 C 27.984687 9.4256094 28.116797 9.4379687 28.248047 9.4804688 C 30.331047 10.140469 32.060719 11.385687 33.386719 13.179688 C 33.715719 13.623688 33.620734 14.248172 33.177734 14.576172 C 32.998734 14.709172 32.788031 14.773437 32.582031 14.773438 C 32.275031 14.773438 31.973344 14.631188 31.777344 14.367188 C 30.691344 12.898188 29.339531 11.924719 27.644531 11.386719 C 27.117531 11.219719 26.827141 10.658812 26.994141 10.132812 C 27.119391 9.7375625 27.467813 9.4731719 27.855469 9.4375 z M 19.472656 12.167969 C 20.050313 12.160875 20.636703 12.278047 21.189453 12.529297 C 21.622453 12.726297 22.004266 12.766844 22.447266 12.589844 C 23.607266 12.116844 24.708766 12.342828 25.759766 12.923828 C 26.692766 13.446828 27.488953 14.145906 28.126953 15.003906 C 28.695953 15.742906 29.215625 16.520531 29.765625 17.269531 C 29.952625 17.515531 30.051 17.841453 30.375 17.939453 C 30.63 17.919453 30.757062 17.721984 30.914062 17.583984 C 33.134062 15.691984 36.012688 16.421625 37.054688 19.140625 C 37.427687 20.106625 37.603891 21.120531 37.712891 22.144531 C 38.026891 25.266531 37.762094 28.311984 36.496094 31.208984 C 34.227094 36.410984 28.136813 39.139516 23.007812 37.228516 C 20.610813 36.341516 18.511688 34.93075 16.929688 32.96875 C 15.328688 30.96875 13.937625 28.745266 13.015625 26.322266 C 12.721625 25.741266 12.466125 25.131234 12.328125 24.490234 C 12.034125 23.189234 12.093516 21.938469 12.978516 20.855469 C 13.263516 20.520469 13.332031 20.146422 13.332031 19.732422 C 13.302031 18.313422 13.892484 17.189094 15.021484 16.371094 C 15.394484 16.096094 15.619031 15.771594 15.707031 15.308594 C 16.090281 13.327844 17.739688 12.18925 19.472656 12.167969 z M 19.5 14.484375 C 19.166875 14.47575 18.828156 14.587906 18.535156 14.816406 C 17.989156 15.244406 17.841922 15.931656 18.169922 16.597656 C 18.299922 16.876656 18.487016 17.133578 18.666016 17.392578 C 20.009016 19.410578 21.350359 21.431219 22.693359 23.449219 C 22.862359 23.717219 23.160953 23.976766 23.001953 24.384766 C 22.524953 24.474766 22.384312 24.096891 22.195312 23.837891 C 21.032312 22.275891 19.879797 20.693812 18.716797 19.132812 C 18.547797 18.903813 18.378688 18.665563 18.179688 18.476562 C 17.621688 17.968563 16.846531 17.928703 16.269531 18.345703 C 15.692531 18.762703 15.534344 19.508078 15.902344 20.205078 C 16.051344 20.483078 16.240922 20.731234 16.419922 20.990234 C 17.742922 22.830234 19.063719 24.670531 20.386719 26.519531 C 20.575719 26.798531 20.855 27.037391 20.875 27.525391 C 20.357 27.814391 20.178703 27.396187 19.970703 27.117188 C 18.996703 25.844188 18.040172 24.562297 17.076172 23.279297 C 16.847172 22.971297 16.608781 22.684313 16.300781 22.445312 C 15.902781 22.147313 15.466047 21.957094 14.998047 22.246094 C 14.541047 22.525094 14.451484 23.003 14.521484 23.5 C 14.610484 24.087 14.809125 24.662453 15.078125 25.189453 C 16.092125 27.188453 17.245187 29.108906 18.617188 30.878906 C 19.423188 31.932906 20.378828 32.836875 21.423828 33.671875 C 26.505828 37.709875 32.828219 34.417031 34.449219 30.082031 C 35.036219 28.500031 35.375609 26.878984 35.474609 25.208984 C 35.572609 23.525984 35.393125 21.865141 34.953125 20.244141 C 34.794125 19.628141 34.516953 19.032656 33.751953 18.972656 C 32.986953 18.912656 32.527922 19.359797 32.169922 19.966797 C 31.831922 20.542797 31.682672 21.189172 31.513672 21.826172 C 31.414672 22.184172 31.394563 22.592016 30.976562 22.791016 C 30.409562 22.811016 30.179641 22.364328 29.931641 21.986328 C 29.166641 20.823328 28.439828 19.640328 27.673828 18.486328 C 27.106828 17.621328 26.511922 16.765766 25.794922 16.009766 C 25.427922 15.612766 25.038313 15.245562 24.570312 14.976562 C 24.082313 14.698562 23.586313 14.518484 23.070312 14.896484 C 22.692312 15.184484 22.643641 15.711906 22.931641 16.378906 C 23.061641 16.666906 23.219906 16.946844 23.378906 17.214844 C 24.233906 18.686844 25.099359 20.148141 25.943359 21.619141 C 26.102359 21.887141 26.401828 22.156437 26.173828 22.523438 C 25.696828 22.543437 25.577672 22.166438 25.388672 21.898438 C 23.926672 19.810437 22.483484 17.711281 21.021484 15.613281 C 20.841484 15.365281 20.664547 15.085953 20.435547 14.876953 C 20.162047 14.622953 19.833125 14.493 19.5 14.484375 z M 27.947266 23.361328 C 28.162141 23.396078 28.364953 23.512125 28.501953 23.703125 C 28.775953 24.084125 28.689594 24.615625 28.308594 24.890625 C 26.870594 25.924625 25.857938 27.369594 25.210938 29.308594 C 25.091938 29.663594 24.758344 29.890625 24.402344 29.890625 C 24.313344 29.890625 24.222812 29.874703 24.132812 29.845703 C 23.687812 29.696703 23.446703 29.214531 23.595703 28.769531 C 24.360703 26.481531 25.575453 24.760766 27.314453 23.509766 C 27.503953 23.373766 27.732391 23.326578 27.947266 23.361328 z M 30.197266 24.576172 C 30.667266 24.576172 31.047875 24.958734 31.046875 25.427734 C 31.044875 27.072734 31.38675 28.472031 32.09375 29.707031 C 32.32575 30.115031 32.186344 30.635188 31.777344 30.867188 C 31.644344 30.943188 31.498469 30.980469 31.355469 30.980469 C 31.060469 30.980469 30.773188 30.825781 30.617188 30.550781 C 29.770187 29.071781 29.344656 27.347781 29.347656 25.425781 C 29.347656 24.955781 29.728266 24.576172 30.197266 24.576172 z M 12.720703 31.650391 C 13.110375 31.665344 13.470938 31.909125 13.617188 32.296875 C 14.739187 35.265875 16.831625 37.353688 20.015625 38.679688 C 20.526625 38.892688 20.769641 39.477328 20.556641 39.986328 C 20.397641 40.371328 20.024813 40.601563 19.632812 40.601562 C 19.503812 40.601562 19.373047 40.578391 19.248047 40.525391 C 15.578047 38.999391 13.055094 36.467906 11.746094 33.003906 C 11.551094 32.486906 11.811125 31.909844 12.328125 31.714844 C 12.457625 31.665844 12.590813 31.645406 12.720703 31.650391 z"/></svg>